<svg xmlns="http://www.w3.org/2000/svg" xmlns:xlink="http://www.w3.org/1999/xlink" width="1040" height="819.85"><rect width="1040" height="819.85" rx="5" ry="5" class="a"/><svg y="0%" x="0%"><circle cx="20" cy="20" r="6" fill="#ff5f58"/><circle cx="40" cy="20" r="6" fill="#ffbd2e"/><circle cx="60" cy="20" r="6" fill="#18c132"/></svg><svg height="759.85" viewBox="0 0 100 75.985" width="1000" x="15" xmlns="http://www.w3.org/2000/svg" xmlns:xlink="http://www.w3.org/1999/xlink" y="50"><style>@keyframes g{0%{transform:translateX(0)}to{transform:translateX(-100px)}}.a{fill:#282d35}.i{fill:#b9c0cb;white-space:pre}</style><g font-family="Monaco,Consolas,Menlo,'Bitstream Vera Sans Mono','Powerline Symbols',monospace" font-size="1.67"><defs><symbol id="a"><path fill="transparent" d="M0 0h100v36H0z"/></symbol></defs><path class="a" d="M0 0h100v75.985H0z"/><g style="animation-duration:.09733s;animation-iteration-count:infinite;animation-name:g;animation-timing-function:steps(1,end)"><svg width="200"><svg><use xlink:href="#a"/></svg><svg x="100"><use xlink:href="#a"/><text y="1.67" class="i">graph</text><text x="6.012" y="1.67" class="i">LR</text><text x="4.008" y="3.841" class="i">amm[amm&lt;br/&gt;4</text><text x="18.036" y="3.841" class="i">handlers]</text><text x="4.008" y="6.012" class="i">oracle[oracle&lt;br/&gt;4</text><text x="24.048" y="6.012" class="i">handlers]</text><text x="4.008" y="8.183" class="i">token[token&lt;br/&gt;4</text><text x="22.044" y="8.183" class="i">handlers]</text><text x="4.008" y="10.354" class="i">msg_From[msg.From]</text><text x="4.008" y="12.525" class="i">amm</text><text x="8.016" y="12.525" class="i">--&gt;|Error|</text><text x="19.038" y="12.525" class="i">msg_From</text><text x="4.008" y="14.696" class="i">amm</text><text x="8.016" y="14.696" class="i">--&gt;|Swap-Result|</text><text x="25.05" y="14.696" class="i">msg_From</text><text x="4.008" y="16.867" class="i">State_OracleProcess[State.OracleProcess]</text><text x="4.008" y="19.038" class="i">amm</text><text x="8.016" y="19.038" class="i">--&gt;|Price-Update|</text><text x="26.052" y="19.038" class="i">State_OracleProcess</text><text x="4.008" y="21.209" class="i">amm</text><text x="8.016" y="21.209" class="i">--&gt;|Pool-Info|</text><text x="23.046" y="21.209" class="i">msg_From</text><text x="4.008" y="23.38" class="i">amm</text><text x="8.016" y="23.38" class="i">--&gt;|Configured|</text><text x="24.048" y="23.38" class="i">msg_From</text><text x="4.008" y="25.551" class="i">oracle</text><text x="11.022" y="25.551" class="i">--&gt;|Source-Registered|</text><text x="34.068" y="25.551" class="i">msg_From</text><text x="4.008" y="27.722" class="i">oracle</text><text x="11.022" y="27.722" class="i">--&gt;|Price-Response|</text><text x="31.062" y="27.722" class="i">msg_From</text><text x="4.008" y="29.893" class="i">oracle</text><text x="11.022" y="29.893" class="i">--&gt;|History-Response|</text><text x="33.066" y="29.893" class="i">msg_From</text><text x="4.008" y="32.064" class="i">sender[sender]</text><text x="4.008" y="34.235" class="i">token</text><text x="10.02" y="34.235" class="i">--&gt;|Debit-Notice|</text><text x="28.056" y="34.235" class="i">sender</text><text x="4.008" y="36.406" class="i">recipient[recipient]</text><text x="4.008" y="38.577" class="i">token</text><text x="10.02" y="38.577" class="i">--&gt;|Credit-Notice|</text><text x="29.058" y="38.577" class="i">recipient</text><text x="4.008" y="40.748" class="i">token</text><text x="10.02" y="40.748" class="i">--&gt;|Balance-Response|</text><text x="32.064" y="40.748" class="i">msg_From</text></svg></svg></g></g></svg></svg>