<svg xmlns="http://www.w3.org/2000/svg" xmlns:xlink="http://www.w3.org/1999/xlink" width="1040" height="819.85"><rect width="1040" height="819.85" rx="5" ry="5" class="a"/><svg y="0%" x="0%"><circle cx="20" cy="20" r="6" fill="#ff5f58"/><circle cx="40" cy="20" r="6" fill="#ffbd2e"/><circle cx="60" cy="20" r="6" fill="#18c132"/></svg><svg height="759.85" viewBox="0 0 100 75.985" width="1000" x="15" xmlns="http://www.w3.org/2000/svg" xmlns:xlink="http://www.w3.org/1999/xlink" y="50"><style>@keyframes m{0%{transform:translateX(0)}50%{transform:translateX(-100px)}63.3%{transform:translateX(-200px)}99.3%{transform:translateX(-500px)}99.4%{transform:translateX(-600px)}99.5%{transform:translateX(-800px)}99.6%{transform:translateX(-1000px)}99.7%{transform:translateX(-1400px)}99.8%{transform:translateX(-1900px)}99.9%{transform:translateX(-2300px)}to{transform:translateX(-2600px)}}.a{fill:#282d35}.f,.g,.h,.i,.j,.k{fill:#b9c0cb;white-space:pre}.g,.h,.i,.j,.k{fill:#e88388}.h,.i,.j,.k{fill:#dbab79}.i,.j,.k{fill:#66c2cd}.j,.k{fill:#b9bfca}.k{fill:#6f7783}</style><g font-family="Monaco,Consolas,Menlo,'Bitstream Vera Sans Mono','Powerline Symbols',monospace" font-size="1.67"><defs><symbol id="1"><text y="1.67" class="f">Auto-detected</text><text x="14.028" y="1.67" class="f">skills</text><text x="21.042" y="1.67" class="f">directory:</text><text x="32.064" y="1.67" class="f">/claude-workspace/worktrees/persistent/ao-lens-standalone/skills</text></symbol><symbol id="2"><text y="1.67" class="f">Loaded</text><text x="7.014" y="1.67" class="f">20</text><text x="10.02" y="1.67" class="f">dynamic</text><text x="18.036" y="1.67" class="f">detection</text><text x="28.056" y="1.67" class="f">rules</text></symbol><symbol id="3"><text y="1.67" class="f">============================================================</text></symbol><symbol id="4"><text y="1.67" class="f">SECURITY</text><text x="9.018" y="1.67" class="f">AUDIT</text><text x="15.03" y="1.67" class="f">REPORT</text></symbol><symbol id="5"><text y="1.67" class="f">RESULT:</text><text x="8.016" y="1.67" class="g">FAIL</text></symbol><symbol id="6"><text y="1.67" class="f">DYNAMIC</text><text x="8.016" y="1.67" class="f">RULES:</text><text x="15.03" y="1.67" class="f">20</text><text x="18.036" y="1.67" class="f">loaded</text><text x="25.05" y="1.67" class="f">from</text><text x="30.06" y="1.67" class="f">skills</text></symbol><symbol id="7"><text y="1.67" class="f">SUMMARY:</text></symbol><symbol id="8"><text x="2.004" y="1.67" class="g">Critical:</text><text x="12.024" y="1.67" class="g">0</text></symbol><symbol id="9"><text x="2.004" y="1.67" class="h">High:</text><text x="8.016" y="1.67" class="h">14</text></symbol><symbol id="10"><text x="2.004" y="1.67" class="i">Medium:</text><text x="10.02" y="1.67" class="i">11</text></symbol><symbol id="11"><text x="2.004" y="1.67" class="j">Low:</text><text x="7.014" y="1.67" class="j">5</text></symbol><symbol id="12"><text x="2.004" y="1.67" class="k">Info:</text><text x="8.016" y="1.67" class="k">0</text></symbol><symbol id="13"><text x="2.004" y="1.67" class="f">Total:</text><text x="9.018" y="1.67" class="f">30</text></symbol><symbol id="14"><text y="1.67" class="f">------------------------------------------------------------</text></symbol><symbol id="15"><text y="1.67" class="f">FILE:</text><text x="6.012" y="1.67" class="f">examples/secure-token.lua</text></symbol><symbol id="16"><text x="2.004" y="1.67" class="h">[HIGH</text><text x="11.022" y="1.67" class="h">]</text><text x="13.026" y="1.67" class="f">JSON_ENCODE_NO_PCALL</text><text x="34.068" y="1.67" class="f">[line</text><text x="40.08" y="1.67" class="f">19]</text></symbol><symbol id="17"><text x="13.026" y="1.67" class="f">json.encode()</text><text x="27.054" y="1.67" class="f">without</text><text x="35.07" y="1.67" class="f">pcall</text><text x="41.082" y="1.67" class="f">may</text><text x="45.09" y="1.67" class="f">crash</text><text x="51.102" y="1.67" class="f">on</text><text x="54.108" y="1.67" class="f">circular</text><text x="63.126" y="1.67" class="f">references</text></symbol><symbol id="18"><text x="13.026" y="1.67" class="f">Suggestion:</text><text x="25.05" y="1.67" class="f">Use:</text><text x="30.06" y="1.67" class="f">local</text><text x="36.072" y="1.67" class="f">ok,</text><text x="40.08" y="1.67" class="f">result</text><text x="47.094" y="1.67" class="f">=</text><text x="49.098" y="1.67" class="f">pcall(json.encode,</text><text x="68.136" y="1.67" class="f">data);</text><text x="75.15" y="1.67" class="f">if</text><text x="78.156" y="1.67" class="f">not</text><text x="82.164" y="1.67" class="f">ok</text><text x="85.17" y="1.67" class="f">then</text><text x="90.18" y="1.67" class="f">...</text><text x="94.188" y="1.67" class="f">end</text></symbol><symbol id="19"><text x="2.004" y="1.67" class="h">[HIGH</text><text x="11.022" y="1.67" class="h">]</text><text x="13.026" y="1.67" class="f">TONUMBER_NO_NIL_CHECK</text><text x="35.07" y="1.67" class="f">[line</text><text x="41.082" y="1.67" class="f">44]</text></symbol><symbol id="20"><text x="13.026" y="1.67" class="f">tonumber()</text><text x="24.048" y="1.67" class="f">result</text><text x="31.062" y="1.67" class="f">not</text><text x="35.07" y="1.67" class="f">checked</text><text x="43.086" y="1.67" class="f">for</text><text x="47.094" y="1.67" class="f">nil</text></symbol><symbol id="21"><text x="13.026" y="1.67" class="f">Suggestion:</text><text x="25.05" y="1.67" class="f">Add</text><text x="29.058" y="1.67" class="f">nil</text><text x="33.066" y="1.67" class="f">check:</text><text x="40.08" y="1.67" class="f">local</text><text x="46.092" y="1.67" class="f">num</text><text x="50.1" y="1.67" class="f">=</text><text x="52.104" y="1.67" class="f">tonumber(x);</text><text x="65.13" y="1.67" class="f">if</text><text x="68.136" y="1.67" class="f">not</text><text x="72.144" y="1.67" class="f">num</text><text x="76.152" y="1.67" class="f">then</text><text x="81.162" y="1.67" class="f">return</text><text x="88.176" y="1.67" class="f">end</text></symbol><symbol id="22"><text x="2.004" y="1.67" class="h">[HIGH</text><text x="11.022" y="1.67" class="h">]</text><text x="13.026" y="1.67" class="f">TONUMBER_NO_NIL_CHECK</text><text x="35.07" y="1.67" class="f">[line</text><text x="41.082" y="1.67" class="f">61]</text></symbol><symbol id="23"><text x="2.004" y="1.67" class="i">[MEDIUM</text><text x="11.022" y="1.67" class="i">]</text><text x="13.026" y="1.67" class="f">AO_SEND_TARGET_NO_NIL_GUARD</text><text x="41.082" y="1.67" class="f">[line</text><text x="47.094" y="1.67" class="f">18]</text></symbol><symbol id="24"><text x="13.026" y="1.67" class="f">Target</text><text x="20.04" y="1.67" class="f">=</text><text x="22.044" y="1.67" class="f">msg.From</text><text x="31.062" y="1.67" class="f">without</text><text x="39.078" y="1.67" class="f">nil</text><text x="43.086" y="1.67" class="f">guard</text><text x="49.098" y="1.67" class="f">-</text><text x="51.102" y="1.67" class="f">may</text><text x="55.11" y="1.67" class="f">fail</text><text x="60.12" y="1.67" class="f">if</text><text x="63.126" y="1.67" class="f">msg.From</text><text x="72.144" y="1.67" class="f">is</text><text x="75.15" y="1.67" class="f">nil</text></symbol><symbol id="25"><text x="13.026" y="1.67" class="f">Suggestion:</text><text x="25.05" y="1.67" class="f">Add</text><text x="29.058" y="1.67" class="f">guard:</text><text x="36.072" y="1.67" class="f">if</text><text x="39.078" y="1.67" class="f">not</text><text x="43.086" y="1.67" class="f">msg.From</text><text x="52.104" y="1.67" class="f">then</text><text x="57.114" y="1.67" class="f">return</text><text x="64.128" y="1.67" class="f">end</text><text x="68.136" y="1.67" class="f">before</text><text x="75.15" y="1.67" class="f">ao.send()</text></symbol><symbol id="26"><text x="2.004" y="1.67" class="i">[MEDIUM</text><text x="11.022" y="1.67" class="i">]</text><text x="13.026" y="1.67" class="f">AO_SEND_TARGET_NO_NIL_GUARD</text><text x="41.082" y="1.67" class="f">[line</text><text x="47.094" y="1.67" class="f">30]</text></symbol><symbol id="27"><text x="2.004" y="1.67" class="i">[MEDIUM</text><text x="11.022" y="1.67" class="i">]</text><text x="13.026" y="1.67" class="f">FROZEN_CHECK_NOT_IN_MATCHER</text><text x="41.082" y="1.67" class="f">[line</text><text x="47.094" y="1.67" class="f">101]</text></symbol><symbol id="28"><text x="13.026" y="1.67" class="f">Handler</text><text x="21.042" y="1.67" class="f">&quot;Freeze&quot;</text><text x="30.06" y="1.67" class="f">checks</text><text x="37.074" y="1.67" class="f">Frozen</text><text x="44.088" y="1.67" class="f">in</text><text x="47.094" y="1.67" class="f">body</text><text x="52.104" y="1.67" class="f">but</text><text x="56.112" y="1.67" class="f">not</text><text x="60.12" y="1.67" class="f">matcher</text><text x="68.136" y="1.67" class="f">(wastes</text><text x="76.152" y="1.67" class="f">compute)</text></symbol><symbol id="29"><text x="13.026" y="1.67" class="f">Suggestion:</text><text x="25.05" y="1.67" class="f">Add</text><text x="29.058" y="1.67" class="f">frozen</text><text x="36.072" y="1.67" class="f">check</text><text x="42.084" y="1.67" class="f">to</text><text x="45.09" y="1.67" class="f">matcher:</text><text x="54.108" y="1.67" class="f">if</text><text x="57.114" y="1.67" class="f">State.Frozen</text><text x="70.14" y="1.67" class="f">then</text><text x="75.15" y="1.67" class="f">return</text><text x="82.164" y="1.67" class="f">false</text><text x="88.176" y="1.67" class="f">end</text></symbol><symbol id="30"><text x="2.004" y="1.67" class="j">[LOW</text><text x="11.022" y="1.67" class="j">]</text><text x="13.026" y="1.67" class="f">MSG_TAGS_NO_NIL_GUARD</text><text x="35.07" y="1.67" class="f">[line</text><text x="41.082" y="1.67" class="f">28]</text></symbol><symbol id="31"><text x="13.026" y="1.67" class="f">msg.Tags</text><text x="22.044" y="1.67" class="f">accessed</text><text x="31.062" y="1.67" class="f">without</text><text x="39.078" y="1.67" class="f">nil</text><text x="43.086" y="1.67" class="f">guard</text></symbol><symbol id="32"><text x="13.026" y="1.67" class="f">Suggestion:</text><text x="25.05" y="1.67" class="f">Add</text><text x="29.058" y="1.67" class="f">guard:</text><text x="36.072" y="1.67" class="f">if</text><text x="39.078" y="1.67" class="f">not</text><text x="43.086" y="1.67" class="f">msg.Tags</text><text x="52.104" y="1.67" class="f">then</text><text x="57.114" y="1.67" class="f">return</text><text x="64.128" y="1.67" class="f">false</text><text x="70.14" y="1.67" class="f">end</text></symbol><symbol id="33"><text x="2.004" y="1.67" class="j">[LOW</text><text x="11.022" y="1.67" class="j">]</text><text x="13.026" y="1.67" class="f">MSG_TAGS_NO_NIL_GUARD</text><text x="35.07" y="1.67" class="f">[line</text><text x="41.082" y="1.67" class="f">44]</text></symbol><symbol id="34"><text x="2.004" y="1.67" class="j">[LOW</text><text x="11.022" y="1.67" class="j">]</text><text x="13.026" y="1.67" class="f">MSG_TAGS_NO_NIL_GUARD</text><text x="35.07" y="1.67" class="f">[line</text><text x="41.082" y="1.67" class="f">47]</text></symbol><symbol id="35"><text x="2.004" y="1.67" class="j">[LOW</text><text x="11.022" y="1.67" class="j">]</text><text x="13.026" y="1.67" class="f">MSG_TAGS_NO_NIL_GUARD</text><text x="35.07" y="1.67" class="f">[line</text><text x="41.082" y="1.67" class="f">61]</text></symbol><symbol id="36"><text x="2.004" y="1.67" class="j">[LOW</text><text x="11.022" y="1.67" class="j">]</text><text x="13.026" y="1.67" class="f">MSG_TAGS_NO_NIL_GUARD</text><text x="35.07" y="1.67" class="f">[line</text><text x="41.082" y="1.67" class="f">64]</text></symbol><symbol id="37"><text x="13.026" y="1.67" class="f">json.encode()</text><text x="27.054" y="1.67" class="f">without</text><text x="35.07" y="1.67" class="f">pcall</text><text x="41.082" y="1.67" class="f">—</text><text x="43.086" y="1.67" class="f">circular</text><text x="52.104" y="1.67" class="f">references</text><text x="63.126" y="1.67" class="f">or</text><text x="66.132" y="1.67" class="f">invalid</text><text x="74.148" y="1.67" class="f">types</text><text x="80.16" y="1.67" class="f">crash</text><text x="86.172" y="1.67" class="f">the</text><text x="90.18" y="1.67" class="f">handler</text></symbol><symbol id="38"><text x="13.026" y="1.67" class="f">Suggestion:</text></symbol><symbol id="39"><text x="2.004" y="1.67" class="i">[MEDIUM</text><text x="11.022" y="1.67" class="i">]</text><text x="13.026" y="1.67" class="f">RESPONSE_WRONG_TARGET</text><text x="35.07" y="1.67" class="f">[line</text><text x="41.082" y="1.67" class="f">30]</text></symbol><symbol id="40"><text x="13.026" y="1.67" class="f">ao.send</text><text x="21.042" y="1.67" class="f">response</text><text x="30.06" y="1.67" class="f">not</text><text x="34.068" y="1.67" class="f">targeting</text><text x="44.088" y="1.67" class="f">msg.From</text><text x="53.106" y="1.67" class="f">—</text><text x="55.11" y="1.67" class="f">reply</text><text x="61.122" y="1.67" class="f">goes</text><text x="66.132" y="1.67" class="f">to</text><text x="69.138" y="1.67" class="f">wrong</text><text x="75.15" y="1.67" class="f">process</text></symbol><symbol id="41"><text x="2.004" y="1.67" class="i">[MEDIUM</text><text x="11.022" y="1.67" class="i">]</text><text x="13.026" y="1.67" class="f">RESPONSE_WRONG_TARGET</text><text x="35.07" y="1.67" class="f">[line</text><text x="41.082" y="1.67" class="f">54]</text></symbol><symbol id="42"><text x="2.004" y="1.67" class="i">[MEDIUM</text><text x="11.022" y="1.67" class="i">]</text><text x="13.026" y="1.67" class="f">RESPONSE_WRONG_TARGET</text><text x="35.07" y="1.67" class="f">[line</text><text x="41.082" y="1.67" class="f">74]</text></symbol><symbol id="43"><text x="2.004" y="1.67" class="i">[MEDIUM</text><text x="11.022" y="1.67" class="i">]</text><text x="13.026" y="1.67" class="f">RESPONSE_WRONG_TARGET</text><text x="35.07" y="1.67" class="f">[line</text><text x="41.082" y="1.67" class="f">90]</text></symbol><symbol id="44"><text x="2.004" y="1.67" class="i">[MEDIUM</text><text x="11.022" y="1.67" class="i">]</text><text x="13.026" y="1.67" class="f">RESPONSE_WRONG_TARGET</text><text x="35.07" y="1.67" class="f">[line</text><text x="41.082" y="1.67" class="f">98]</text></symbol><symbol id="45"><text x="2.004" y="1.67" class="i">[MEDIUM</text><text x="11.022" y="1.67" class="i">]</text><text x="13.026" y="1.67" class="f">RESPONSE_WRONG_TARGET</text><text x="35.07" y="1.67" class="f">[line</text><text x="41.082" y="1.67" class="f">109]</text></symbol><symbol id="46"><text x="2.004" y="1.67" class="h">[HIGH</text><text x="11.022" y="1.67" class="h">]</text><text x="13.026" y="1.67" class="f">MUTATING_NO_FROZEN_CHECK</text><text x="38.076" y="1.67" class="f">[line</text><text x="44.088" y="1.67" class="f">51]</text></symbol><symbol id="47"><text x="13.026" y="1.67" class="f">Handler</text><text x="21.042" y="1.67" class="f">mutates</text><text x="29.058" y="1.67" class="f">state</text><text x="35.07" y="1.67" class="f">without</text><text x="43.086" y="1.67" class="f">checking</text><text x="52.104" y="1.67" class="f">State.Frozen</text></symbol><symbol id="48"><text x="2.004" y="1.67" class="h">[HIGH</text><text x="11.022" y="1.67" class="h">]</text><text x="13.026" y="1.67" class="f">MUTATING_NO_FROZEN_CHECK</text><text x="38.076" y="1.67" class="f">[line</text><text x="44.088" y="1.67" class="f">72]</text></symbol><symbol id="49"><text x="2.004" y="1.67" class="h">[HIGH</text><text x="11.022" y="1.67" class="h">]</text><text x="13.026" y="1.67" class="f">MUTATING_NO_FROZEN_CHECK</text><text x="38.076" y="1.67" class="f">[line</text><text x="44.088" y="1.67" class="f">94]</text></symbol><symbol id="50"><text x="2.004" y="1.67" class="h">[HIGH</text><text x="11.022" y="1.67" class="h">]</text><text x="13.026" y="1.67" class="f">MUTATING_NO_FROZEN_CHECK</text><text x="38.076" y="1.67" class="f">[line</text><text x="44.088" y="1.67" class="f">96]</text></symbol><symbol id="51"><text x="2.004" y="1.67" class="h">[HIGH</text><text x="11.022" y="1.67" class="h">]</text><text x="13.026" y="1.67" class="f">MUTATING_NO_FROZEN_CHECK</text><text x="38.076" y="1.67" class="f">[line</text><text x="44.088" y="1.67" class="f">108]</text></symbol><symbol id="52"><text x="2.004" y="1.67" class="i">[MEDIUM</text><text x="11.022" y="1.67" class="i">]</text><text x="13.026" y="1.67" class="f">FROZEN_NOT_INITIALIZED</text><text x="36.072" y="1.67" class="f">[line</text><text x="42.084" y="1.67" class="f">81]</text></symbol><symbol id="53"><text x="13.026" y="1.67" class="f">State.Frozen</text><text x="26.052" y="1.67" class="f">never</text><text x="32.064" y="1.67" class="f">initialized</text><text x="44.088" y="1.67" class="f">—</text><text x="46.092" y="1.67" class="f">defaults</text><text x="55.11" y="1.67" class="f">to</text><text x="58.116" y="1.67" class="f">nil</text><text x="62.124" y="1.67" class="f">(falsy),</text><text x="71.142" y="1.67" class="f">but</text><text x="75.15" y="1.67" class="f">explicit</text><text x="84.168" y="1.67" class="f">is</text><text x="87.174" y="1.67" class="f">safer</text></symbol><symbol id="54"><text x="2.004" y="1.67" class="i">[MEDIUM</text><text x="11.022" y="1.67" class="i">]</text><text x="13.026" y="1.67" class="f">FROZEN_NOT_INITIALIZED</text><text x="36.072" y="1.67" class="f">[line</text><text x="42.084" y="1.67" class="f">108]</text></symbol><symbol id="55"><text x="2.004" y="1.67" class="h">[HIGH</text><text x="11.022" y="1.67" class="h">]</text><text x="13.026" y="1.67" class="f">MISSING_AUTH_ON_MUTATOR</text><text x="37.074" y="1.67" class="f">[line</text><text x="43.086" y="1.67" class="f">51]</text></symbol><symbol id="56"><text x="13.026" y="1.67" class="f">Handler</text><text x="21.042" y="1.67" class="f">mutates</text><text x="29.058" y="1.67" class="f">state</text><text x="35.07" y="1.67" class="f">without</text><text x="43.086" y="1.67" class="f">checking</text><text x="52.104" y="1.67" class="f">msg.From</text></symbol><symbol id="57"><text x="2.004" y="1.67" class="h">[HIGH</text><text x="11.022" y="1.67" class="h">]</text><text x="13.026" y="1.67" class="f">MISSING_AUTH_ON_MUTATOR</text><text x="37.074" y="1.67" class="f">[line</text><text x="43.086" y="1.67" class="f">72]</text></symbol><symbol id="58"><text x="2.004" y="1.67" class="h">[HIGH</text><text x="11.022" y="1.67" class="h">]</text><text x="13.026" y="1.67" class="f">MISSING_AUTH_ON_MUTATOR</text><text x="37.074" y="1.67" class="f">[line</text><text x="43.086" y="1.67" class="f">94]</text></symbol><symbol id="59"><text x="2.004" y="1.67" class="h">[HIGH</text><text x="11.022" y="1.67" class="h">]</text><text x="13.026" y="1.67" class="f">MISSING_AUTH_ON_MUTATOR</text><text x="37.074" y="1.67" class="f">[line</text><text x="43.086" y="1.67" class="f">96]</text></symbol><symbol id="60"><text x="2.004" y="1.67" class="h">[HIGH</text><text x="11.022" y="1.67" class="h">]</text><text x="13.026" y="1.67" class="f">MISSING_AUTH_ON_MUTATOR</text><text x="37.074" y="1.67" class="f">[line</text><text x="43.086" y="1.67" class="f">108]</text></symbol><symbol id="a"><path fill="transparent" d="M0 0h100v36H0z"/></symbol></defs><path class="a" d="M0 0h100v75.985H0z"/><g style="animation-duration:.202613s;animation-iteration-count:infinite;animation-name:m;animation-timing-function:steps(1,end)"><svg width="2700"><svg><use xlink:href="#a"/></svg><svg x="100"><use xlink:href="#a"/><use xlink:href="#1"/></svg><svg x="200"><use xlink:href="#a"/><use xlink:href="#1"/><use xlink:href="#2" y="2.171"/></svg><svg x="300"><use xlink:href="#a"/><use xlink:href="#1"/><use xlink:href="#2" y="2.171"/><use xlink:href="#3" y="6.513"/></svg><svg x="400"><use xlink:href="#a"/><use xlink:href="#1"/><use xlink:href="#2" y="2.171"/><use xlink:href="#3" y="6.513"/><use xlink:href="#4" y="8.684"/><use xlink:href="#3" y="10.855"/><use xlink:href="#5" y="15.197"/></svg><svg x="500"><use xlink:href="#a"/><use xlink:href="#1"/><use xlink:href="#2" y="2.171"/><use xlink:href="#3" y="6.513"/><use xlink:href="#4" y="8.684"/><use xlink:href="#3" y="10.855"/><use xlink:href="#5" y="15.197"/><use xlink:href="#6" y="19.539"/></svg><svg x="600"><use xlink:href="#a"/><use xlink:href="#1"/><use xlink:href="#2" y="2.171"/><use xlink:href="#3" y="6.513"/><use xlink:href="#4" y="8.684"/><use xlink:href="#3" y="10.855"/><use xlink:href="#5" y="15.197"/><use xlink:href="#6" y="19.539"/><use xlink:href="#7" y="23.881"/><use xlink:href="#8" y="26.052"/></svg><svg x="700"><use xlink:href="#a"/><use xlink:href="#1"/><use xlink:href="#2" y="2.171"/><use xlink:href="#3" y="6.513"/><use xlink:href="#4" y="8.684"/><use xlink:href="#3" y="10.855"/><use xlink:href="#5" y="15.197"/><use xlink:href="#6" y="19.539"/><use xlink:href="#7" y="23.881"/><use xlink:href="#8" y="26.052"/><use xlink:href="#9" y="28.223"/></svg><svg x="800"><use xlink:href="#a"/><use xlink:href="#1"/><use xlink:href="#2" y="2.171"/><use xlink:href="#3" y="6.513"/><use xlink:href="#4" y="8.684"/><use xlink:href="#3" y="10.855"/><use xlink:href="#5" y="15.197"/><use xlink:href="#6" y="19.539"/><use xlink:href="#7" y="23.881"/><use xlink:href="#8" y="26.052"/><use xlink:href="#9" y="28.223"/><use xlink:href="#10" y="30.394"/><use xlink:href="#11" y="32.565"/><use xlink:href="#12" y="34.736"/></svg><svg x="900"><use xlink:href="#a"/><use xlink:href="#1"/><use xlink:href="#2" y="2.171"/><use xlink:href="#3" y="6.513"/><use xlink:href="#4" y="8.684"/><use xlink:href="#3" y="10.855"/><use xlink:href="#5" y="15.197"/><use xlink:href="#6" y="19.539"/><use xlink:href="#7" y="23.881"/><use xlink:href="#8" y="26.052"/><use xlink:href="#9" y="28.223"/><use xlink:href="#10" y="30.394"/><use xlink:href="#11" y="32.565"/><use xlink:href="#12" y="34.736"/><use xlink:href="#13" y="36.907"/><use xlink:href="#14" y="41.249"/><use xlink:href="#15" y="43.42"/></svg><svg x="1000"><use xlink:href="#a"/><use xlink:href="#1"/><use xlink:href="#2" y="2.171"/><use xlink:href="#3" y="6.513"/><use xlink:href="#4" y="8.684"/><use xlink:href="#3" y="10.855"/><use xlink:href="#5" y="15.197"/><use xlink:href="#6" y="19.539"/><use xlink:href="#7" y="23.881"/><use xlink:href="#8" y="26.052"/><use xlink:href="#9" y="28.223"/><use xlink:href="#10" y="30.394"/><use xlink:href="#11" y="32.565"/><use xlink:href="#12" y="34.736"/><use xlink:href="#13" y="36.907"/><use xlink:href="#14" y="41.249"/><use xlink:href="#15" y="43.42"/><use xlink:href="#16" y="45.591"/><use xlink:href="#17" y="47.762"/><use xlink:href="#18" y="49.933"/><use xlink:href="#19" y="52.104"/><use xlink:href="#20" y="54.275"/><use xlink:href="#21" y="56.446"/><use xlink:href="#22" y="58.617"/><use xlink:href="#20" y="60.788"/><use xlink:href="#21" y="62.959"/></svg><svg x="1100"><use xlink:href="#a"/><use xlink:href="#3"/><use xlink:href="#4" y="2.171"/><use xlink:href="#3" y="4.342"/><use xlink:href="#5" y="8.684"/><use xlink:href="#6" y="13.026"/><use xlink:href="#7" y="17.368"/><use xlink:href="#8" y="19.539"/><use xlink:href="#9" y="21.71"/><use xlink:href="#10" y="23.881"/><use xlink:href="#11" y="26.052"/><use xlink:href="#12" y="28.223"/><use xlink:href="#13" y="30.394"/><use xlink:href="#14" y="34.736"/><use xlink:href="#15" y="36.907"/><use xlink:href="#16" y="39.078"/><use xlink:href="#17" y="41.249"/><use xlink:href="#18" y="43.42"/><use xlink:href="#19" y="45.591"/><use xlink:href="#20" y="47.762"/><use xlink:href="#21" y="49.933"/><use xlink:href="#22" y="52.104"/><use xlink:href="#20" y="54.275"/><use xlink:href="#21" y="56.446"/><use xlink:href="#23" y="58.617"/><use xlink:href="#24" y="60.788"/><use xlink:href="#25" y="62.959"/><use xlink:href="#26" y="65.13"/><use xlink:href="#24" y="67.301"/><use xlink:href="#25" y="69.472"/><use xlink:href="#27" y="71.643"/><use xlink:href="#28" y="73.814"/></svg><svg x="1200"><use xlink:href="#a"/><use xlink:href="#7" y="2.171"/><use xlink:href="#8" y="4.342"/><use xlink:href="#9" y="6.513"/><use xlink:href="#10" y="8.684"/><use xlink:href="#11" y="10.855"/><use xlink:href="#12" y="13.026"/><use xlink:href="#13" y="15.197"/><use xlink:href="#14" y="19.539"/><use xlink:href="#15" y="21.71"/><use xlink:href="#16" y="23.881"/><use xlink:href="#17" y="26.052"/><use xlink:href="#18" y="28.223"/><use xlink:href="#19" y="30.394"/><use xlink:href="#20" y="32.565"/><use xlink:href="#21" y="34.736"/><use xlink:href="#22" y="36.907"/><use xlink:href="#20" y="39.078"/><use xlink:href="#21" y="41.249"/><use xlink:href="#23" y="43.42"/><use xlink:href="#24" y="45.591"/><use xlink:href="#25" y="47.762"/><use xlink:href="#26" y="49.933"/><use xlink:href="#24" y="52.104"/><use xlink:href="#25" y="54.275"/><use xlink:href="#27" y="56.446"/><use xlink:href="#28" y="58.617"/><use xlink:href="#29" y="60.788"/><use xlink:href="#30" y="62.959"/><use xlink:href="#31" y="65.13"/><use xlink:href="#32" y="67.301"/><use xlink:href="#33" y="69.472"/><use xlink:href="#31" y="71.643"/><use xlink:href="#32" y="73.814"/></svg><svg x="1300"><use xlink:href="#a"/><use xlink:href="#13"/><use xlink:href="#14" y="4.342"/><use xlink:href="#15" y="6.513"/><use xlink:href="#16" y="8.684"/><use xlink:href="#17" y="10.855"/><use xlink:href="#18" y="13.026"/><use xlink:href="#19" y="15.197"/><use xlink:href="#20" y="17.368"/><use xlink:href="#21" y="19.539"/><use xlink:href="#22" y="21.71"/><use xlink:href="#20" y="23.881"/><use xlink:href="#21" y="26.052"/><use xlink:href="#23" y="28.223"/><use xlink:href="#24" y="30.394"/><use xlink:href="#25" y="32.565"/><use xlink:href="#26" y="34.736"/><use xlink:href="#24" y="36.907"/><use xlink:href="#25" y="39.078"/><use xlink:href="#27" y="41.249"/><use xlink:href="#28" y="43.42"/><use xlink:href="#29" y="45.591"/><use xlink:href="#30" y="47.762"/><use xlink:href="#31" y="49.933"/><use xlink:href="#32" y="52.104"/><use xlink:href="#33" y="54.275"/><use xlink:href="#31" y="56.446"/><use xlink:href="#32" y="58.617"/><use xlink:href="#34" y="60.788"/><use xlink:href="#31" y="62.959"/><use xlink:href="#32" y="65.13"/><use xlink:href="#35" y="67.301"/><use xlink:href="#31" y="69.472"/><use xlink:href="#32" y="71.643"/><use xlink:href="#36" y="73.814"/></svg><svg x="1400"><use xlink:href="#a"/><use xlink:href="#14" y="2.171"/><use xlink:href="#15" y="4.342"/><use xlink:href="#16" y="6.513"/><use xlink:href="#17" y="8.684"/><use xlink:href="#18" y="10.855"/><use xlink:href="#19" y="13.026"/><use xlink:href="#20" y="15.197"/><use xlink:href="#21" y="17.368"/><use xlink:href="#22" y="19.539"/><use xlink:href="#20" y="21.71"/><use xlink:href="#21" y="23.881"/><use xlink:href="#23" y="26.052"/><use xlink:href="#24" y="28.223"/><use xlink:href="#25" y="30.394"/><use xlink:href="#26" y="32.565"/><use xlink:href="#24" y="34.736"/><use xlink:href="#25" y="36.907"/><use xlink:href="#27" y="39.078"/><use xlink:href="#28" y="41.249"/><use xlink:href="#29" y="43.42"/><use xlink:href="#30" y="45.591"/><use xlink:href="#31" y="47.762"/><use xlink:href="#32" y="49.933"/><use xlink:href="#33" y="52.104"/><use xlink:href="#31" y="54.275"/><use xlink:href="#32" y="56.446"/><use xlink:href="#34" y="58.617"/><use xlink:href="#31" y="60.788"/><use xlink:href="#32" y="62.959"/><use xlink:href="#35" y="65.13"/><use xlink:href="#31" y="67.301"/><use xlink:href="#32" y="69.472"/><use xlink:href="#36" y="71.643"/><use xlink:href="#31" y="73.814"/></svg><svg x="1500"><use xlink:href="#a"/><use xlink:href="#19"/><use xlink:href="#20" y="2.171"/><use xlink:href="#21" y="4.342"/><use xlink:href="#22" y="6.513"/><use xlink:href="#20" y="8.684"/><use xlink:href="#21" y="10.855"/><use xlink:href="#23" y="13.026"/><use xlink:href="#24" y="15.197"/><use xlink:href="#25" y="17.368"/><use xlink:href="#26" y="19.539"/><use xlink:href="#24" y="21.71"/><use xlink:href="#25" y="23.881"/><use xlink:href="#27" y="26.052"/><use xlink:href="#28" y="28.223"/><use xlink:href="#29" y="30.394"/><use xlink:href="#30" y="32.565"/><use xlink:href="#31" y="34.736"/><use xlink:href="#32" y="36.907"/><use xlink:href="#33" y="39.078"/><use xlink:href="#31" y="41.249"/><use xlink:href="#32" y="43.42"/><use xlink:href="#34" y="45.591"/><use xlink:href="#31" y="47.762"/><use xlink:href="#32" y="49.933"/><use xlink:href="#35" y="52.104"/><use xlink:href="#31" y="54.275"/><use xlink:href="#32" y="56.446"/><use xlink:href="#36" y="58.617"/><use xlink:href="#31" y="60.788"/><use xlink:href="#32" y="62.959"/><use xlink:href="#16" y="65.13"/><use xlink:href="#37" y="67.301"/><use xlink:href="#38" y="69.472"/><use xlink:href="#39" y="71.643"/><use xlink:href="#40" y="73.814"/></svg><svg x="1600"><use xlink:href="#a"/><use xlink:href="#25"/><use xlink:href="#26" y="2.171"/><use xlink:href="#24" y="4.342"/><use xlink:href="#25" y="6.513"/><use xlink:href="#27" y="8.684"/><use xlink:href="#28" y="10.855"/><use xlink:href="#29" y="13.026"/><use xlink:href="#30" y="15.197"/><use xlink:href="#31" y="17.368"/><use xlink:href="#32" y="19.539"/><use xlink:href="#33" y="21.71"/><use xlink:href="#31" y="23.881"/><use xlink:href="#32" y="26.052"/><use xlink:href="#34" y="28.223"/><use xlink:href="#31" y="30.394"/><use xlink:href="#32" y="32.565"/><use xlink:href="#35" y="34.736"/><use xlink:href="#31" y="36.907"/><use xlink:href="#32" y="39.078"/><use xlink:href="#36" y="41.249"/><use xlink:href="#31" y="43.42"/><use xlink:href="#32" y="45.591"/><use xlink:href="#16" y="47.762"/><use xlink:href="#37" y="49.933"/><use xlink:href="#38" y="52.104"/><use xlink:href="#39" y="54.275"/><use xlink:href="#40" y="56.446"/><use xlink:href="#38" y="58.617"/><use xlink:href="#41" y="60.788"/><use xlink:href="#40" y="62.959"/><use xlink:href="#38" y="65.13"/><use xlink:href="#42" y="67.301"/><use xlink:href="#40" y="69.472"/><use xlink:href="#38" y="71.643"/><use xlink:href="#43" y="73.814"/></svg><svg x="1700"><use xlink:href="#a"/><use xlink:href="#24"/><use xlink:href="#25" y="2.171"/><use xlink:href="#27" y="4.342"/><use xlink:href="#28" y="6.513"/><use xlink:href="#29" y="8.684"/><use xlink:href="#30" y="10.855"/><use xlink:href="#31" y="13.026"/><use xlink:href="#32" y="15.197"/><use xlink:href="#33" y="17.368"/><use xlink:href="#31" y="19.539"/><use xlink:href="#32" y="21.71"/><use xlink:href="#34" y="23.881"/><use xlink:href="#31" y="26.052"/><use xlink:href="#32" y="28.223"/><use xlink:href="#35" y="30.394"/><use xlink:href="#31" y="32.565"/><use xlink:href="#32" y="34.736"/><use xlink:href="#36" y="36.907"/><use xlink:href="#31" y="39.078"/><use xlink:href="#32" y="41.249"/><use xlink:href="#16" y="43.42"/><use xlink:href="#37" y="45.591"/><use xlink:href="#38" y="47.762"/><use xlink:href="#39" y="49.933"/><use xlink:href="#40" y="52.104"/><use xlink:href="#38" y="54.275"/><use xlink:href="#41" y="56.446"/><use xlink:href="#40" y="58.617"/><use xlink:href="#38" y="60.788"/><use xlink:href="#42" y="62.959"/><use xlink:href="#40" y="65.13"/><use xlink:href="#38" y="67.301"/><use xlink:href="#43" y="69.472"/><use xlink:href="#40" y="71.643"/><use xlink:href="#38" y="73.814"/></svg><svg x="1800"><use xlink:href="#a"/><use xlink:href="#29"/><use xlink:href="#30" y="2.171"/><use xlink:href="#31" y="4.342"/><use xlink:href="#32" y="6.513"/><use xlink:href="#33" y="8.684"/><use xlink:href="#31" y="10.855"/><use xlink:href="#32" y="13.026"/><use xlink:href="#34" y="15.197"/><use xlink:href="#31" y="17.368"/><use xlink:href="#32" y="19.539"/><use xlink:href="#35" y="21.71"/><use xlink:href="#31" y="23.881"/><use xlink:href="#32" y="26.052"/><use xlink:href="#36" y="28.223"/><use xlink:href="#31" y="30.394"/><use xlink:href="#32" y="32.565"/><use xlink:href="#16" y="34.736"/><use xlink:href="#37" y="36.907"/><use xlink:href="#38" y="39.078"/><use xlink:href="#39" y="41.249"/><use xlink:href="#40" y="43.42"/><use xlink:href="#38" y="45.591"/><use xlink:href="#41" y="47.762"/><use xlink:href="#40" y="49.933"/><use xlink:href="#38" y="52.104"/><use xlink:href="#42" y="54.275"/><use xlink:href="#40" y="56.446"/><use xlink:href="#38" y="58.617"/><use xlink:href="#43" y="60.788"/><use xlink:href="#40" y="62.959"/><use xlink:href="#38" y="65.13"/><use xlink:href="#44" y="67.301"/><use xlink:href="#40" y="69.472"/><use xlink:href="#38" y="71.643"/><use xlink:href="#45" y="73.814"/></svg><svg x="1900"><use xlink:href="#a"/><use xlink:href="#31"/><use xlink:href="#32" y="2.171"/><use xlink:href="#35" y="4.342"/><use xlink:href="#31" y="6.513"/><use xlink:href="#32" y="8.684"/><use xlink:href="#36" y="10.855"/><use xlink:href="#31" y="13.026"/><use xlink:href="#32" y="15.197"/><use xlink:href="#16" y="17.368"/><use xlink:href="#37" y="19.539"/><use xlink:href="#38" y="21.71"/><use xlink:href="#39" y="23.881"/><use xlink:href="#40" y="26.052"/><use xlink:href="#38" y="28.223"/><use xlink:href="#41" y="30.394"/><use xlink:href="#40" y="32.565"/><use xlink:href="#38" y="34.736"/><use xlink:href="#42" y="36.907"/><use xlink:href="#40" y="39.078"/><use xlink:href="#38" y="41.249"/><use xlink:href="#43" y="43.42"/><use xlink:href="#40" y="45.591"/><use xlink:href="#38" y="47.762"/><use xlink:href="#44" y="49.933"/><use xlink:href="#40" y="52.104"/><use xlink:href="#38" y="54.275"/><use xlink:href="#45" y="56.446"/><use xlink:href="#40" y="58.617"/><use xlink:href="#38" y="60.788"/><use xlink:href="#46" y="62.959"/><use xlink:href="#47" y="65.13"/><use xlink:href="#38" y="67.301"/><use xlink:href="#48" y="69.472"/><use xlink:href="#47" y="71.643"/><use xlink:href="#38" y="73.814"/></svg><svg x="2000"><use xlink:href="#a"/><use xlink:href="#31"/><use xlink:href="#32" y="2.171"/><use xlink:href="#36" y="4.342"/><use xlink:href="#31" y="6.513"/><use xlink:href="#32" y="8.684"/><use xlink:href="#16" y="10.855"/><use xlink:href="#37" y="13.026"/><use xlink:href="#38" y="15.197"/><use xlink:href="#39" y="17.368"/><use xlink:href="#40" y="19.539"/><use xlink:href="#38" y="21.71"/><use xlink:href="#41" y="23.881"/><use xlink:href="#40" y="26.052"/><use xlink:href="#38" y="28.223"/><use xlink:href="#42" y="30.394"/><use xlink:href="#40" y="32.565"/><use xlink:href="#38" y="34.736"/><use xlink:href="#43" y="36.907"/><use xlink:href="#40" y="39.078"/><use xlink:href="#38" y="41.249"/><use xlink:href="#44" y="43.42"/><use xlink:href="#40" y="45.591"/><use xlink:href="#38" y="47.762"/><use xlink:href="#45" y="49.933"/><use xlink:href="#40" y="52.104"/><use xlink:href="#38" y="54.275"/><use xlink:href="#46" y="56.446"/><use xlink:href="#47" y="58.617"/><use xlink:href="#38" y="60.788"/><use xlink:href="#48" y="62.959"/><use xlink:href="#47" y="65.13"/><use xlink:href="#38" y="67.301"/><use xlink:href="#49" y="69.472"/><use xlink:href="#47" y="71.643"/><use xlink:href="#38" y="73.814"/></svg><svg x="2100"><use xlink:href="#a"/><use xlink:href="#37"/><use xlink:href="#38" y="2.171"/><use xlink:href="#39" y="4.342"/><use xlink:href="#40" y="6.513"/><use xlink:href="#38" y="8.684"/><use xlink:href="#41" y="10.855"/><use xlink:href="#40" y="13.026"/><use xlink:href="#38" y="15.197"/><use xlink:href="#42" y="17.368"/><use xlink:href="#40" y="19.539"/><use xlink:href="#38" y="21.71"/><use xlink:href="#43" y="23.881"/><use xlink:href="#40" y="26.052"/><use xlink:href="#38" y="28.223"/><use xlink:href="#44" y="30.394"/><use xlink:href="#40" y="32.565"/><use xlink:href="#38" y="34.736"/><use xlink:href="#45" y="36.907"/><use xlink:href="#40" y="39.078"/><use xlink:href="#38" y="41.249"/><use xlink:href="#46" y="43.42"/><use xlink:href="#47" y="45.591"/><use xlink:href="#38" y="47.762"/><use xlink:href="#48" y="49.933"/><use xlink:href="#47" y="52.104"/><use xlink:href="#38" y="54.275"/><use xlink:href="#49" y="56.446"/><use xlink:href="#47" y="58.617"/><use xlink:href="#38" y="60.788"/><use xlink:href="#50" y="62.959"/><use xlink:href="#47" y="65.13"/><use xlink:href="#38" y="67.301"/><use xlink:href="#51" y="69.472"/><use xlink:href="#47" y="71.643"/><use xlink:href="#38" y="73.814"/></svg><svg x="2200"><use xlink:href="#a"/><use xlink:href="#40"/><use xlink:href="#38" y="2.171"/><use xlink:href="#42" y="4.342"/><use xlink:href="#40" y="6.513"/><use xlink:href="#38" y="8.684"/><use xlink:href="#43" y="10.855"/><use xlink:href="#40" y="13.026"/><use xlink:href="#38" y="15.197"/><use xlink:href="#44" y="17.368"/><use xlink:href="#40" y="19.539"/><use xlink:href="#38" y="21.71"/><use xlink:href="#45" y="23.881"/><use xlink:href="#40" y="26.052"/><use xlink:href="#38" y="28.223"/><use xlink:href="#46" y="30.394"/><use xlink:href="#47" y="32.565"/><use xlink:href="#38" y="34.736"/><use xlink:href="#48" y="36.907"/><use xlink:href="#47" y="39.078"/><use xlink:href="#38" y="41.249"/><use xlink:href="#49" y="43.42"/><use xlink:href="#47" y="45.591"/><use xlink:href="#38" y="47.762"/><use xlink:href="#50" y="49.933"/><use xlink:href="#47" y="52.104"/><use xlink:href="#38" y="54.275"/><use xlink:href="#51" y="56.446"/><use xlink:href="#47" y="58.617"/><use xlink:href="#38" y="60.788"/><use xlink:href="#52" y="62.959"/><use xlink:href="#53" y="65.13"/><use xlink:href="#38" y="67.301"/><use xlink:href="#54" y="69.472"/><use xlink:href="#53" y="71.643"/><use xlink:href="#38" y="73.814"/></svg><svg x="2300"><use xlink:href="#a"/><use xlink:href="#38"/><use xlink:href="#43" y="2.171"/><use xlink:href="#40" y="4.342"/><use xlink:href="#38" y="6.513"/><use xlink:href="#44" y="8.684"/><use xlink:href="#40" y="10.855"/><use xlink:href="#38" y="13.026"/><use xlink:href="#45" y="15.197"/><use xlink:href="#40" y="17.368"/><use xlink:href="#38" y="19.539"/><use xlink:href="#46" y="21.71"/><use xlink:href="#47" y="23.881"/><use xlink:href="#38" y="26.052"/><use xlink:href="#48" y="28.223"/><use xlink:href="#47" y="30.394"/><use xlink:href="#38" y="32.565"/><use xlink:href="#49" y="34.736"/><use xlink:href="#47" y="36.907"/><use xlink:href="#38" y="39.078"/><use xlink:href="#50" y="41.249"/><use xlink:href="#47" y="43.42"/><use xlink:href="#38" y="45.591"/><use xlink:href="#51" y="47.762"/><use xlink:href="#47" y="49.933"/><use xlink:href="#38" y="52.104"/><use xlink:href="#52" y="54.275"/><use xlink:href="#53" y="56.446"/><use xlink:href="#38" y="58.617"/><use xlink:href="#54" y="60.788"/><use xlink:href="#53" y="62.959"/><use xlink:href="#38" y="65.13"/><use xlink:href="#55" y="67.301"/><use xlink:href="#56" y="69.472"/><use xlink:href="#38" y="71.643"/><use xlink:href="#57" y="73.814"/></svg><svg x="2400"><use xlink:href="#a"/><use xlink:href="#45"/><use xlink:href="#40" y="2.171"/><use xlink:href="#38" y="4.342"/><use xlink:href="#46" y="6.513"/><use xlink:href="#47" y="8.684"/><use xlink:href="#38" y="10.855"/><use xlink:href="#48" y="13.026"/><use xlink:href="#47" y="15.197"/><use xlink:href="#38" y="17.368"/><use xlink:href="#49" y="19.539"/><use xlink:href="#47" y="21.71"/><use xlink:href="#38" y="23.881"/><use xlink:href="#50" y="26.052"/><use xlink:href="#47" y="28.223"/><use xlink:href="#38" y="30.394"/><use xlink:href="#51" y="32.565"/><use xlink:href="#47" y="34.736"/><use xlink:href="#38" y="36.907"/><use xlink:href="#52" y="39.078"/><use xlink:href="#53" y="41.249"/><use xlink:href="#38" y="43.42"/><use xlink:href="#54" y="45.591"/><use xlink:href="#53" y="47.762"/><use xlink:href="#38" y="49.933"/><use xlink:href="#55" y="52.104"/><use xlink:href="#56" y="54.275"/><use xlink:href="#38" y="56.446"/><use xlink:href="#57" y="58.617"/><use xlink:href="#56" y="60.788"/><use xlink:href="#38" y="62.959"/><use xlink:href="#58" y="65.13"/><use xlink:href="#56" y="67.301"/><use xlink:href="#38" y="69.472"/><use xlink:href="#59" y="71.643"/><use xlink:href="#56" y="73.814"/></svg><svg x="2500"><use xlink:href="#a"/><use xlink:href="#47"/><use xlink:href="#38" y="2.171"/><use xlink:href="#48" y="4.342"/><use xlink:href="#47" y="6.513"/><use xlink:href="#38" y="8.684"/><use xlink:href="#49" y="10.855"/><use xlink:href="#47" y="13.026"/><use xlink:href="#38" y="15.197"/><use xlink:href="#50" y="17.368"/><use xlink:href="#47" y="19.539"/><use xlink:href="#38" y="21.71"/><use xlink:href="#51" y="23.881"/><use xlink:href="#47" y="26.052"/><use xlink:href="#38" y="28.223"/><use xlink:href="#52" y="30.394"/><use xlink:href="#53" y="32.565"/><use xlink:href="#38" y="34.736"/><use xlink:href="#54" y="36.907"/><use xlink:href="#53" y="39.078"/><use xlink:href="#38" y="41.249"/><use xlink:href="#55" y="43.42"/><use xlink:href="#56" y="45.591"/><use xlink:href="#38" y="47.762"/><use xlink:href="#57" y="49.933"/><use xlink:href="#56" y="52.104"/><use xlink:href="#38" y="54.275"/><use xlink:href="#58" y="56.446"/><use xlink:href="#56" y="58.617"/><use xlink:href="#38" y="60.788"/><use xlink:href="#59" y="62.959"/><use xlink:href="#56" y="65.13"/><use xlink:href="#38" y="67.301"/><use xlink:href="#60" y="69.472"/><use xlink:href="#56" y="71.643"/><use xlink:href="#38" y="73.814"/></svg><svg x="2600"><use xlink:href="#a"/><use xlink:href="#48"/><use xlink:href="#47" y="2.171"/><use xlink:href="#38" y="4.342"/><use xlink:href="#49" y="6.513"/><use xlink:href="#47" y="8.684"/><use xlink:href="#38" y="10.855"/><use xlink:href="#50" y="13.026"/><use xlink:href="#47" y="15.197"/><use xlink:href="#38" y="17.368"/><use xlink:href="#51" y="19.539"/><use xlink:href="#47" y="21.71"/><use xlink:href="#38" y="23.881"/><use xlink:href="#52" y="26.052"/><use xlink:href="#53" y="28.223"/><use xlink:href="#38" y="30.394"/><use xlink:href="#54" y="32.565"/><use xlink:href="#53" y="34.736"/><use xlink:href="#38" y="36.907"/><use xlink:href="#55" y="39.078"/><use xlink:href="#56" y="41.249"/><use xlink:href="#38" y="43.42"/><use xlink:href="#57" y="45.591"/><use xlink:href="#56" y="47.762"/><use xlink:href="#38" y="49.933"/><use xlink:href="#58" y="52.104"/><use xlink:href="#56" y="54.275"/><use xlink:href="#38" y="56.446"/><use xlink:href="#59" y="58.617"/><use xlink:href="#56" y="60.788"/><use xlink:href="#38" y="62.959"/><use xlink:href="#60" y="65.13"/><use xlink:href="#56" y="67.301"/><use xlink:href="#38" y="69.472"/><use xlink:href="#3" y="73.814"/></svg></svg></g></g></svg></svg>