<svg xmlns="http://www.w3.org/2000/svg" xmlns:xlink="http://www.w3.org/1999/xlink" width="1040" height="928.4"><rect width="1040" height="928.4" rx="5" ry="5" class="a"/><svg y="0%" x="0%"><circle cx="20" cy="20" r="6" fill="#ff5f58"/><circle cx="40" cy="20" r="6" fill="#ffbd2e"/><circle cx="60" cy="20" r="6" fill="#18c132"/></svg><svg height="868.4" viewBox="0 0 100 86.84" width="1000" x="15" xmlns="http://www.w3.org/2000/svg" xmlns:xlink="http://www.w3.org/1999/xlink" y="50"><style>@keyframes h{0%{transform:translateX(0)}.2%{transform:translateX(-100px)}16.9%{transform:translateX(-200px)}18.3%{transform:translateX(-300px)}19.7%{transform:translateX(-400px)}21.1%{transform:translateX(-500px)}22.5%{transform:translateX(-600px)}23.8%{transform:translateX(-700px)}25.2%{transform:translateX(-800px)}26.6%{transform:translateX(-900px)}28%{transform:translateX(-1000px)}29.4%{transform:translateX(-1100px)}30.8%{transform:translateX(-1200px)}32.2%{transform:translateX(-1300px)}33.6%{transform:translateX(-1400px)}35%{transform:translateX(-1500px)}36.4%{transform:translateX(-1600px)}37.8%{transform:translateX(-1700px)}39.1%{transform:translateX(-1800px)}40.5%{transform:translateX(-1900px)}41.9%{transform:translateX(-2000px)}43.3%{transform:translateX(-2100px)}44.7%{transform:translateX(-2200px)}46.1%{transform:translateX(-2300px)}47.5%{transform:translateX(-2400px)}48.9%{transform:translateX(-2500px)}50.3%{transform:translateX(-2600px)}51.6%{transform:translateX(-2700px)}53%{transform:translateX(-2800px)}54.4%{transform:translateX(-2900px)}55.8%{transform:translateX(-3000px)}57.2%{transform:translateX(-3100px)}58.6%{transform:translateX(-3200px)}60%{transform:translateX(-3300px)}61.4%{transform:translateX(-3400px)}62.7%{transform:translateX(-3500px)}64.1%{transform:translateX(-3600px)}65.5%{transform:translateX(-3700px)}66.9%{transform:translateX(-3800px)}68.3%{transform:translateX(-3900px)}69.7%{transform:translateX(-4000px)}71.1%{transform:translateX(-4100px)}72.5%{transform:translateX(-4200px)}73.9%{transform:translateX(-4300px)}75.2%{transform:translateX(-4400px)}76.6%{transform:translateX(-4500px)}78%{transform:translateX(-4600px)}79.4%{transform:translateX(-4700px)}80.8%{transform:translateX(-4800px)}82.2%{transform:translateX(-4900px)}83.6%{transform:translateX(-5000px)}84.9%{transform:translateX(-5100px)}86.3%{transform:translateX(-5200px)}to{transform:translateX(-5300px)}}.a{fill:#282d35}.f{fill:#b9c0cb;white-space:pre}</style><g font-family="Monaco,Consolas,Menlo,'Bitstream Vera Sans Mono','Powerline Symbols',monospace" font-size="1.67"><defs><symbol id="1"><text y="1.67" class="f">$</text><text x="2.004" y="1.67" class="f">npx</text></symbol><symbol id="2"><text y="1.67" class="f">$</text><text x="2.004" y="1.67" class="f">npx</text><text x="6.012" y="1.67" class="f">ao-lens</text></symbol><symbol id="3"><text y="1.67" class="f">$</text><text x="2.004" y="1.67" class="f">npx</text><text x="6.012" y="1.67" class="f">ao-lens</text><text x="14.028" y="1.67" class="f">graph</text></symbol><symbol id="4"><text y="1.67" class="f">$</text><text x="2.004" y="1.67" class="f">npx</text><text x="6.012" y="1.67" class="f">ao-lens</text><text x="14.028" y="1.67" class="f">graph</text><text x="20.04" y="1.67" class="f">examples/multi-process</text></symbol><symbol id="5"><text y="1.67" class="f">$</text><text x="2.004" y="1.67" class="f">npx</text><text x="6.012" y="1.67" class="f">ao-lens</text><text x="14.028" y="1.67" class="f">graph</text><text x="20.04" y="1.67" class="f">examples/multi-process</text><text x="43.086" y="1.67" class="f">--mermaid</text></symbol><symbol id="a"><path fill="transparent" d="M0 0h100v41H0z"/></symbol></defs><path class="a" d="M0 0h100v86.84H0z"/><g style="animation-duration:2.997294s;animation-iteration-count:infinite;animation-name:h;animation-timing-function:steps(1,end)"><svg width="5400"><svg><use xlink:href="#a"/></svg><svg x="100"><use xlink:href="#a"/><text y="1.67" class="f">$</text></svg><svg x="200"><use xlink:href="#a"/><text y="1.67" class="f">$</text><text x="2.004" y="1.67" class="f">n</text></svg><svg x="300"><use xlink:href="#a"/><text y="1.67" class="f">$</text><text x="2.004" y="1.67" class="f">np</text></svg><svg x="400"><use xlink:href="#a"/><use xlink:href="#1"/></svg><svg x="500"><use xlink:href="#a"/><use xlink:href="#1"/></svg><svg x="600"><use xlink:href="#a"/><text y="1.67" class="f">$</text><text x="2.004" y="1.67" class="f">npx</text><text x="6.012" y="1.67" class="f">a</text></svg><svg x="700"><use xlink:href="#a"/><text y="1.67" class="f">$</text><text x="2.004" y="1.67" class="f">npx</text><text x="6.012" y="1.67" class="f">ao</text></svg><svg x="800"><use xlink:href="#a"/><text y="1.67" class="f">$</text><text x="2.004" y="1.67" class="f">npx</text><text x="6.012" y="1.67" class="f">ao-</text></svg><svg x="900"><use xlink:href="#a"/><text y="1.67" class="f">$</text><text x="2.004" y="1.67" class="f">npx</text><text x="6.012" y="1.67" class="f">ao-l</text></svg><svg x="1000"><use xlink:href="#a"/><text y="1.67" class="f">$</text><text x="2.004" y="1.67" class="f">npx</text><text x="6.012" y="1.67" class="f">ao-le</text></svg><svg x="1100"><use xlink:href="#a"/><text y="1.67" class="f">$</text><text x="2.004" y="1.67" class="f">npx</text><text x="6.012" y="1.67" class="f">ao-len</text></svg><svg x="1200"><use xlink:href="#a"/><use xlink:href="#2"/></svg><svg x="1300"><use xlink:href="#a"/><use xlink:href="#2"/></svg><svg x="1400"><use xlink:href="#a"/><text y="1.67" class="f">$</text><text x="2.004" y="1.67" class="f">npx</text><text x="6.012" y="1.67" class="f">ao-lens</text><text x="14.028" y="1.67" class="f">g</text></svg><svg x="1500"><use xlink:href="#a"/><text y="1.67" class="f">$</text><text x="2.004" y="1.67" class="f">npx</text><text x="6.012" y="1.67" class="f">ao-lens</text><text x="14.028" y="1.67" class="f">gr</text></svg><svg x="1600"><use xlink:href="#a"/><text y="1.67" class="f">$</text><text x="2.004" y="1.67" class="f">npx</text><text x="6.012" y="1.67" class="f">ao-lens</text><text x="14.028" y="1.67" class="f">gra</text></svg><svg x="1700"><use xlink:href="#a"/><text y="1.67" class="f">$</text><text x="2.004" y="1.67" class="f">npx</text><text x="6.012" y="1.67" class="f">ao-lens</text><text x="14.028" y="1.67" class="f">grap</text></svg><svg x="1800"><use xlink:href="#a"/><use xlink:href="#3"/></svg><svg x="1900"><use xlink:href="#a"/><use xlink:href="#3"/></svg><svg x="2000"><use xlink:href="#a"/><text y="1.67" class="f">$</text><text x="2.004" y="1.67" class="f">npx</text><text x="6.012" y="1.67" class="f">ao-lens</text><text x="14.028" y="1.67" class="f">graph</text><text x="20.04" y="1.67" class="f">e</text></svg><svg x="2100"><use xlink:href="#a"/><text y="1.67" class="f">$</text><text x="2.004" y="1.67" class="f">npx</text><text x="6.012" y="1.67" class="f">ao-lens</text><text x="14.028" y="1.67" class="f">graph</text><text x="20.04" y="1.67" class="f">ex</text></svg><svg x="2200"><use xlink:href="#a"/><text y="1.67" class="f">$</text><text x="2.004" y="1.67" class="f">npx</text><text x="6.012" y="1.67" class="f">ao-lens</text><text x="14.028" y="1.67" class="f">graph</text><text x="20.04" y="1.67" class="f">exa</text></svg><svg x="2300"><use xlink:href="#a"/><text y="1.67" class="f">$</text><text x="2.004" y="1.67" class="f">npx</text><text x="6.012" y="1.67" class="f">ao-lens</text><text x="14.028" y="1.67" class="f">graph</text><text x="20.04" y="1.67" class="f">exam</text></svg><svg x="2400"><use xlink:href="#a"/><text y="1.67" class="f">$</text><text x="2.004" y="1.67" class="f">npx</text><text x="6.012" y="1.67" class="f">ao-lens</text><text x="14.028" y="1.67" class="f">graph</text><text x="20.04" y="1.67" class="f">examp</text></svg><svg x="2500"><use xlink:href="#a"/><text y="1.67" class="f">$</text><text x="2.004" y="1.67" class="f">npx</text><text x="6.012" y="1.67" class="f">ao-lens</text><text x="14.028" y="1.67" class="f">graph</text><text x="20.04" y="1.67" class="f">exampl</text></svg><svg x="2600"><use xlink:href="#a"/><text y="1.67" class="f">$</text><text x="2.004" y="1.67" class="f">npx</text><text x="6.012" y="1.67" class="f">ao-lens</text><text x="14.028" y="1.67" class="f">graph</text><text x="20.04" y="1.67" class="f">example</text></svg><svg x="2700"><use xlink:href="#a"/><text y="1.67" class="f">$</text><text x="2.004" y="1.67" class="f">npx</text><text x="6.012" y="1.67" class="f">ao-lens</text><text x="14.028" y="1.67" class="f">graph</text><text x="20.04" y="1.67" class="f">examples</text></svg><svg x="2800"><use xlink:href="#a"/><text y="1.67" class="f">$</text><text x="2.004" y="1.67" class="f">npx</text><text x="6.012" y="1.67" class="f">ao-lens</text><text x="14.028" y="1.67" class="f">graph</text><text x="20.04" y="1.67" class="f">examples/</text></svg><svg x="2900"><use xlink:href="#a"/><text y="1.67" class="f">$</text><text x="2.004" y="1.67" class="f">npx</text><text x="6.012" y="1.67" class="f">ao-lens</text><text x="14.028" y="1.67" class="f">graph</text><text x="20.04" y="1.67" class="f">examples/m</text></svg><svg x="3000"><use xlink:href="#a"/><text y="1.67" class="f">$</text><text x="2.004" y="1.67" class="f">npx</text><text x="6.012" y="1.67" class="f">ao-lens</text><text x="14.028" y="1.67" class="f">graph</text><text x="20.04" y="1.67" class="f">examples/mu</text></svg><svg x="3100"><use xlink:href="#a"/><text y="1.67" class="f">$</text><text x="2.004" y="1.67" class="f">npx</text><text x="6.012" y="1.67" class="f">ao-lens</text><text x="14.028" y="1.67" class="f">graph</text><text x="20.04" y="1.67" class="f">examples/mul</text></svg><svg x="3200"><use xlink:href="#a"/><text y="1.67" class="f">$</text><text x="2.004" y="1.67" class="f">npx</text><text x="6.012" y="1.67" class="f">ao-lens</text><text x="14.028" y="1.67" class="f">graph</text><text x="20.04" y="1.67" class="f">examples/mult</text></svg><svg x="3300"><use xlink:href="#a"/><text y="1.67" class="f">$</text><text x="2.004" y="1.67" class="f">npx</text><text x="6.012" y="1.67" class="f">ao-lens</text><text x="14.028" y="1.67" class="f">graph</text><text x="20.04" y="1.67" class="f">examples/multi</text></svg><svg x="3400"><use xlink:href="#a"/><text y="1.67" class="f">$</text><text x="2.004" y="1.67" class="f">npx</text><text x="6.012" y="1.67" class="f">ao-lens</text><text x="14.028" y="1.67" class="f">graph</text><text x="20.04" y="1.67" class="f">examples/multi-</text></svg><svg x="3500"><use xlink:href="#a"/><text y="1.67" class="f">$</text><text x="2.004" y="1.67" class="f">npx</text><text x="6.012" y="1.67" class="f">ao-lens</text><text x="14.028" y="1.67" class="f">graph</text><text x="20.04" y="1.67" class="f">examples/multi-p</text></svg><svg x="3600"><use xlink:href="#a"/><text y="1.67" class="f">$</text><text x="2.004" y="1.67" class="f">npx</text><text x="6.012" y="1.67" class="f">ao-lens</text><text x="14.028" y="1.67" class="f">graph</text><text x="20.04" y="1.67" class="f">examples/multi-pr</text></svg><svg x="3700"><use xlink:href="#a"/><text y="1.67" class="f">$</text><text x="2.004" y="1.67" class="f">npx</text><text x="6.012" y="1.67" class="f">ao-lens</text><text x="14.028" y="1.67" class="f">graph</text><text x="20.04" y="1.67" class="f">examples/multi-pro</text></svg><svg x="3800"><use xlink:href="#a"/><text y="1.67" class="f">$</text><text x="2.004" y="1.67" class="f">npx</text><text x="6.012" y="1.67" class="f">ao-lens</text><text x="14.028" y="1.67" class="f">graph</text><text x="20.04" y="1.67" class="f">examples/multi-proc</text></svg><svg x="3900"><use xlink:href="#a"/><text y="1.67" class="f">$</text><text x="2.004" y="1.67" class="f">npx</text><text x="6.012" y="1.67" class="f">ao-lens</text><text x="14.028" y="1.67" class="f">graph</text><text x="20.04" y="1.67" class="f">examples/multi-proce</text></svg><svg x="4000"><use xlink:href="#a"/><text y="1.67" class="f">$</text><text x="2.004" y="1.67" class="f">npx</text><text x="6.012" y="1.67" class="f">ao-lens</text><text x="14.028" y="1.67" class="f">graph</text><text x="20.04" y="1.67" class="f">examples/multi-proces</text></svg><svg x="4100"><use xlink:href="#a"/><use xlink:href="#4"/></svg><svg x="4200"><use xlink:href="#a"/><use xlink:href="#4"/></svg><svg x="4300"><use xlink:href="#a"/><text y="1.67" class="f">$</text><text x="2.004" y="1.67" class="f">npx</text><text x="6.012" y="1.67" class="f">ao-lens</text><text x="14.028" y="1.67" class="f">graph</text><text x="20.04" y="1.67" class="f">examples/multi-process</text><text x="43.086" y="1.67" class="f">-</text></svg><svg x="4400"><use xlink:href="#a"/><text y="1.67" class="f">$</text><text x="2.004" y="1.67" class="f">npx</text><text x="6.012" y="1.67" class="f">ao-lens</text><text x="14.028" y="1.67" class="f">graph</text><text x="20.04" y="1.67" class="f">examples/multi-process</text><text x="43.086" y="1.67" class="f">--</text></svg><svg x="4500"><use xlink:href="#a"/><text y="1.67" class="f">$</text><text x="2.004" y="1.67" class="f">npx</text><text x="6.012" y="1.67" class="f">ao-lens</text><text x="14.028" y="1.67" class="f">graph</text><text x="20.04" y="1.67" class="f">examples/multi-process</text><text x="43.086" y="1.67" class="f">--m</text></svg><svg x="4600"><use xlink:href="#a"/><text y="1.67" class="f">$</text><text x="2.004" y="1.67" class="f">npx</text><text x="6.012" y="1.67" class="f">ao-lens</text><text x="14.028" y="1.67" class="f">graph</text><text x="20.04" y="1.67" class="f">examples/multi-process</text><text x="43.086" y="1.67" class="f">--me</text></svg><svg x="4700"><use xlink:href="#a"/><text y="1.67" class="f">$</text><text x="2.004" y="1.67" class="f">npx</text><text x="6.012" y="1.67" class="f">ao-lens</text><text x="14.028" y="1.67" class="f">graph</text><text x="20.04" y="1.67" class="f">examples/multi-process</text><text x="43.086" y="1.67" class="f">--mer</text></svg><svg x="4800"><use xlink:href="#a"/><text y="1.67" class="f">$</text><text x="2.004" y="1.67" class="f">npx</text><text x="6.012" y="1.67" class="f">ao-lens</text><text x="14.028" y="1.67" class="f">graph</text><text x="20.04" y="1.67" class="f">examples/multi-process</text><text x="43.086" y="1.67" class="f">--merm</text></svg><svg x="4900"><use xlink:href="#a"/><text y="1.67" class="f">$</text><text x="2.004" y="1.67" class="f">npx</text><text x="6.012" y="1.67" class="f">ao-lens</text><text x="14.028" y="1.67" class="f">graph</text><text x="20.04" y="1.67" class="f">examples/multi-process</text><text x="43.086" y="1.67" class="f">--merma</text></svg><svg x="5000"><use xlink:href="#a"/><text y="1.67" class="f">$</text><text x="2.004" y="1.67" class="f">npx</text><text x="6.012" y="1.67" class="f">ao-lens</text><text x="14.028" y="1.67" class="f">graph</text><text x="20.04" y="1.67" class="f">examples/multi-process</text><text x="43.086" y="1.67" class="f">--mermai</text></svg><svg x="5100"><use xlink:href="#a"/><use xlink:href="#5"/></svg><svg x="5200"><use xlink:href="#a"/><use xlink:href="#5"/></svg><svg x="5300"><use xlink:href="#a"/><use xlink:href="#5"/><text y="3.841" class="f">graph</text><text x="6.012" y="3.841" class="f">LR</text><text x="4.008" y="6.012" class="f">amm[amm&lt;br/&gt;4</text><text x="18.036" y="6.012" class="f">handlers]</text><text x="4.008" y="8.183" class="f">oracle[oracle&lt;br/&gt;4</text><text x="24.048" y="8.183" class="f">handlers]</text><text x="4.008" y="10.354" class="f">token[token&lt;br/&gt;4</text><text x="22.044" y="10.354" class="f">handlers]</text><text x="4.008" y="12.525" class="f">msg_From[msg.From]</text><text x="4.008" y="14.696" class="f">amm</text><text x="8.016" y="14.696" class="f">--&gt;|Error|</text><text x="19.038" y="14.696" class="f">msg_From</text><text x="4.008" y="16.867" class="f">amm</text><text x="8.016" y="16.867" class="f">--&gt;|Swap-Result|</text><text x="25.05" y="16.867" class="f">msg_From</text><text x="4.008" y="19.038" class="f">State_OracleProcess[State.OracleProcess]</text><text x="4.008" y="21.209" class="f">amm</text><text x="8.016" y="21.209" class="f">--&gt;|Price-Update|</text><text x="26.052" y="21.209" class="f">State_OracleProcess</text><text x="4.008" y="23.38" class="f">amm</text><text x="8.016" y="23.38" class="f">--&gt;|Pool-Info|</text><text x="23.046" y="23.38" class="f">msg_From</text><text x="4.008" y="25.551" class="f">amm</text><text x="8.016" y="25.551" class="f">--&gt;|Configured|</text><text x="24.048" y="25.551" class="f">msg_From</text><text x="4.008" y="27.722" class="f">oracle</text><text x="11.022" y="27.722" class="f">--&gt;|Source-Registered|</text><text x="34.068" y="27.722" class="f">msg_From</text><text x="4.008" y="29.893" class="f">oracle</text><text x="11.022" y="29.893" class="f">--&gt;|Price-Response|</text><text x="31.062" y="29.893" class="f">msg_From</text><text x="4.008" y="32.064" class="f">oracle</text><text x="11.022" y="32.064" class="f">--&gt;|History-Response|</text><text x="33.066" y="32.064" class="f">msg_From</text><text x="4.008" y="34.235" class="f">sender[sender]</text><text x="4.008" y="36.406" class="f">token</text><text x="10.02" y="36.406" class="f">--&gt;|Debit-Notice|</text><text x="28.056" y="36.406" class="f">sender</text><text x="4.008" y="38.577" class="f">recipient[recipient]</text><text x="4.008" y="40.748" class="f">token</text><text x="10.02" y="40.748" class="f">--&gt;|Credit-Notice|</text><text x="29.058" y="40.748" class="f">recipient</text><text x="4.008" y="42.919" class="f">token</text><text x="10.02" y="42.919" class="f">--&gt;|Balance-Response|</text><text x="32.064" y="42.919" class="f">msg_From</text></svg></svg></g></g></svg></svg>